<svg width="128" height="109" viewBox="0 0 128 109" fill="none" xmlns="http://www.w3.org/2000/svg">
<mask id="path-1-inside-1_183_174" fill="white">
<path d="M121.728 58.7357C125.673 56.2383 126.84 49.9028 127.968 46.8997L128 46.6743L127.773 46.6969C121.602 47.3226 118.379 50.6325 116.689 53.1032C117.101 50.4978 117.315 47.8616 117.315 45.2068C117.315 45.1748 117.314 45.1441 117.314 45.1121L117.341 45.1481C117.341 45.1481 120.434 44.7052 123.309 41.3379C126.338 37.7893 125.576 31.3937 125.764 28.1919L125.728 27.9664L125.518 28.0558C119.697 30.5185 117.63 34.7422 116.78 37.6065C116.456 35.3266 115.983 33.0786 115.374 30.876C115.969 30.5585 118.32 29.1351 119.907 25.6398C121.831 21.3934 119.322 15.458 118.614 12.3296L118.518 12.1228L118.34 12.2656C113.763 15.969 112.746 20.2421 112.611 23.2251C111.894 21.6335 111.099 20.0766 110.227 18.5571L110.259 18.5718C110.259 18.5718 112.637 16.6707 113.374 12.4217C114.151 7.94447 110.33 2.95233 108.894 0.172098L108.752 0.00133462L108.62 0.180102C105.077 4.9668 105.306 9.39996 105.967 12.2402C105.433 11.5558 104.879 10.8821 104.308 10.2204C104.213 8.72491 103.449 6.8732 101.699 4.91076C99.7763 2.75222 96.0863 -0.318846 89.6522 0.0653698L89.4301 0.078711L89.4983 0.290831C91.0543 3.00569 93.1709 8.92102 97.36 10.7087C99.7148 11.7133 101.68 11.7893 102.9 11.6839C103.54 12.4297 104.155 13.1914 104.748 13.9679C104.692 13.9452 104.64 13.9238 104.585 13.9025C101.881 12.8726 97.1847 11.844 91.6551 15.1419L91.4624 15.2553L91.6189 15.4127C94.256 17.1056 98.8692 21.3814 103.413 21.0425C105.725 20.8704 107.4 20.1674 108.465 19.5497C109.516 21.3787 110.45 23.2678 111.268 25.2049C111.117 25.0888 110.959 24.9714 110.796 24.8567C108.375 23.141 103.977 20.9171 97.637 22.7741L97.4175 22.8382L97.5339 23.0343C99.7148 25.3916 103.195 30.8173 107.793 31.6445C110.276 32.0914 112.211 31.7619 113.418 31.3937C114.027 33.5909 114.494 35.8348 114.807 38.1121C114.795 38.0974 114.785 38.0841 114.775 38.0694C112.926 35.7535 109.317 32.4022 102.706 32.4369L102.479 32.4383L102.535 32.6597C103.976 35.5267 105.814 41.7021 110.003 43.766C112.159 44.8292 114.028 45.0747 115.292 45.0787C115.292 45.1214 115.294 45.1641 115.294 45.2068C115.294 47.927 115.065 50.6285 114.614 53.2953C114.589 53.23 114.567 53.1646 114.54 53.0979C113.461 50.339 111.006 46.0753 104.683 44.1622L104.464 44.0955L104.452 44.3223C104.981 47.4867 104.906 53.9277 108.296 57.1348C110.064 58.8064 111.799 59.5909 113.007 59.9604C112.242 62.3951 111.284 64.7845 110.147 67.1178C110.143 66.891 110.135 66.6589 110.119 66.4201C109.937 63.4651 108.91 58.6583 103.476 54.9056L103.286 54.7762L103.205 54.9896C102.737 58.1634 100.69 64.2722 102.934 68.3585C104.269 70.7892 105.92 72.1126 106.969 72.7623C105.572 74.9368 104.007 77.0474 102.281 79.0778C102.324 78.8831 102.364 78.6856 102.4 78.4828C102.945 75.4478 103.093 70.3303 98.5187 65.2007L98.3608 65.0233L98.2256 65.218C96.9707 68.3131 93.3904 73.9936 94.6534 78.6803C95.3839 81.3898 96.6723 83.1094 97.5701 84.0446C97.3185 84.2821 97.0697 84.5196 96.8155 84.7544C94.9945 86.426 93.1883 87.9161 91.4062 89.2556C91.4637 89.1128 91.5226 88.9701 91.5761 88.8206C92.7067 85.7629 93.8065 80.4626 89.996 74.2831L89.8636 74.0684L89.6856 74.2485C87.8058 77.2395 83.0281 82.4931 83.4749 87.6026C83.7064 90.2601 84.5587 92.1665 85.2825 93.3525C82.6575 94.8974 80.11 96.1461 77.663 97.1814C77.8971 96.9212 78.1326 96.6451 78.364 96.3462C80.2358 93.9422 82.719 89.5371 81.0814 82.9614L81.0252 82.7346L80.8178 82.844C78.2945 84.9758 72.5534 88.3017 71.5005 92.9763C70.8194 95.9967 71.3185 98.2566 71.7065 99.3959C68.953 100.292 66.3855 100.975 64.0549 101.596C64.0361 101.6 64.0174 101.605 63.9987 101.609C63.9799 101.605 63.9612 101.6 63.9425 101.596C61.6105 100.974 59.043 100.291 56.2908 99.3959C56.6788 98.2566 57.1765 95.9954 56.4969 92.9763C55.4439 88.3017 49.7015 84.9758 47.1795 82.844L46.9708 82.7346L46.9146 82.9614C45.277 89.5371 47.7588 93.9422 49.6333 96.3462C49.8647 96.6451 50.1002 96.9212 50.3344 97.1814C47.8859 96.1461 45.3385 94.8974 42.7135 93.3525C43.4373 92.1665 44.2882 90.2615 44.5197 87.6026C44.9666 82.4931 40.1902 77.2395 38.309 74.2485L38.1338 74.0684L38.0026 74.2831C34.1922 80.464 35.292 85.7629 36.4199 88.8206C36.4761 88.9701 36.5336 89.1128 36.5911 89.2542C34.809 87.9161 33.0041 86.426 31.1832 84.7544C30.9276 84.5196 30.6775 84.2821 30.4259 84.0446C31.3237 83.1108 32.6134 81.3911 33.3426 78.6803C34.6056 73.9936 31.0267 68.3131 29.7703 65.218L29.6352 65.0233L29.4827 65.2007C24.9083 70.3303 25.0541 75.4478 25.6 78.4828C25.6361 78.6856 25.6776 78.8844 25.7191 79.0778C23.9931 77.0474 22.4291 74.9368 21.0323 72.7623C22.0799 72.1139 23.7309 70.7892 25.0662 68.3585C27.3112 64.2722 25.2642 58.1621 24.7946 54.9896L24.7143 54.7762L24.527 54.9056C19.0923 58.657 18.0648 63.4651 17.8828 66.4201C17.8681 66.6602 17.8601 66.8923 17.856 67.1178C16.7188 64.7845 15.7608 62.3951 14.9942 59.9604C16.2024 59.5909 17.9377 58.8064 19.7051 57.1348C23.0967 53.9277 23.0218 47.4867 23.5489 44.3223L23.5382 44.0955L23.3188 44.1622C16.9931 46.0766 14.5407 50.339 13.4609 53.0979C13.4342 53.1646 13.4128 53.23 13.3874 53.2953C12.9378 50.6272 12.7077 47.9256 12.7077 45.2054C12.7077 45.1628 12.709 45.1201 12.709 45.0774C13.972 45.0734 15.8411 44.8279 17.9979 43.7646C22.1869 41.7008 24.0239 35.5253 25.4675 32.6584L25.5237 32.4369L25.295 32.4356C18.6856 32.4009 15.0785 35.7521 13.2281 38.0681C13.2174 38.0828 13.2067 38.0974 13.196 38.1121C13.5091 35.8348 13.9747 33.5909 14.5835 31.3923C15.7916 31.7605 17.7249 32.0901 20.2095 31.6431C24.8093 30.816 28.2892 25.389 30.4701 23.033L30.5851 22.8369L30.3657 22.7728C24.0239 20.9144 19.6275 23.1384 17.2071 24.8553C17.0439 24.9701 16.8874 25.0875 16.7349 25.2035C17.551 23.2664 18.4862 21.3774 19.5378 19.5483C20.6028 20.1647 22.2793 20.8691 24.5899 21.0412C29.1335 21.38 33.748 17.1043 36.3837 15.4113L36.5416 15.2539L36.3503 15.1405C30.8193 11.8413 26.1231 12.8699 23.4205 13.9012C23.3643 13.9225 23.3121 13.9452 23.2559 13.9665C23.8486 13.1901 24.4628 12.4283 25.1023 11.6826C26.3225 11.788 28.2892 11.7119 30.6427 10.7074C34.8317 8.91969 36.9483 3.00436 38.5044 0.289496L38.5726 0.0773776L38.3492 0.0640365C31.9164 -0.32018 28.225 2.75088 26.3024 4.90943C24.5524 6.87187 23.7911 8.72358 23.6948 10.2191C23.1235 10.8808 22.5696 11.5545 22.0344 12.2389C22.6967 9.39862 22.9255 4.96546 19.3826 0.178767L19.2502 0L19.1084 0.170763C17.6727 2.95099 13.8516 7.94314 14.629 12.4203C15.3675 16.6694 17.7437 18.5705 17.7437 18.5705L17.7771 18.5558C16.9034 20.074 16.1087 21.6322 15.3929 23.2237C15.2578 20.2421 14.241 15.9677 9.66389 12.2642L9.48728 12.1215L9.38961 12.3296C8.68051 15.458 6.17322 21.3934 8.09851 25.6398C9.68529 29.1351 12.0347 30.5599 12.6314 30.876C12.0213 33.0786 11.549 35.3266 11.2253 37.6065C10.3743 34.7436 8.30588 30.5185 2.48454 28.0558L2.27449 27.9664L2.23836 28.1919C2.42567 31.3937 1.66305 37.7893 4.69213 41.3379C7.56735 44.7065 10.6593 45.1481 10.6593 45.1481L10.6874 45.1121C10.6874 45.1441 10.6861 45.1748 10.6861 45.2068C10.6861 47.8616 10.9001 50.4964 11.3109 53.1019C9.62241 50.6312 6.39799 47.3226 0.227449 46.6969L0 46.6743L0.0321103 46.8997C1.15999 49.9028 2.32666 56.2383 6.27223 58.7357C9.86591 61.0103 12.8442 60.6541 13.0796 60.6208C13.7419 62.7166 14.5407 64.7805 15.4678 66.8056C13.0569 65.0366 9.08322 63.1409 3.31673 64.3642L3.0933 64.4109L3.19365 64.6164C5.1885 67.1311 8.243 72.8063 12.7652 73.9803C15.9923 74.8181 18.3685 74.2311 19.3492 73.8896C20.6001 75.8347 21.9769 77.7291 23.4821 79.5634C20.6175 78.3187 16.0351 77.2515 10.3529 79.973L10.1375 80.0771L10.29 80.2598C12.9298 82.3157 17.4212 87.3091 22.2873 87.3892C26.0054 87.4492 28.3294 86.0965 29.096 85.5682C29.3355 85.7923 29.571 86.0177 29.8145 86.2419C31.4882 87.7774 33.1473 89.1648 34.7889 90.4269C31.598 89.5971 26.4549 89.1475 20.8316 93.1804L20.6282 93.3259L20.8209 93.4873C23.9477 95.1402 29.5469 99.512 34.6257 98.6995C39.4476 97.9244 41.6324 95.279 41.6324 95.279L41.5709 95.1295C41.5522 95.0828 41.5294 95.0388 41.5094 94.9908C43.6741 96.2768 45.7867 97.3615 47.8364 98.2953C44.7846 98.6008 40.534 99.8789 36.9952 104.623L36.856 104.812L37.0728 104.902C40.3266 105.49 46.5493 107.801 50.8401 105.643C53.6778 104.216 55.1134 102.342 55.7262 101.336C57.2648 101.835 58.7486 102.27 60.1641 102.664C56.0915 103.852 52.8202 105.162 50.6019 107.665L52.1165 109C54.5114 106.298 58.6991 105.111 63.9987 103.698C69.2982 105.111 73.4859 106.297 75.8808 109L77.3967 107.665C75.1784 105.162 71.9058 103.852 67.8345 102.664C69.2514 102.27 70.7351 101.835 72.2738 101.336C72.8839 102.342 74.3221 104.215 77.1586 105.643C81.448 107.801 87.672 105.491 90.9246 104.902L91.1413 104.812L91.0022 104.623C87.462 99.8775 83.2127 98.5995 80.1595 98.2953C82.2079 97.3628 84.3219 96.2768 86.4853 94.9921C86.4652 95.0375 86.4425 95.0815 86.4238 95.1295L86.3635 95.279C86.3635 95.279 88.5484 97.9244 93.3689 98.6995C98.4477 99.5107 104.047 95.1402 107.174 93.4873L107.368 93.3259L107.163 93.1804C101.542 89.1475 96.398 89.5958 93.2071 90.4269C94.8474 89.1662 96.5077 87.7787 98.1815 86.2419C98.4237 86.0177 98.6591 85.7923 98.8986 85.5682C99.6653 86.0965 101.991 87.4492 105.707 87.3892C110.573 87.3091 115.065 82.3157 117.705 80.2598L117.857 80.0771L117.643 79.973C111.96 77.2501 107.377 78.3201 104.513 79.5634C106.019 77.7291 107.396 75.8347 108.647 73.8896C109.629 74.2324 112.004 74.8181 115.231 73.9803C119.754 72.8063 122.807 67.1311 124.804 64.6164L124.903 64.4109L124.679 64.3642C118.913 63.1409 114.94 65.0366 112.529 66.8056C113.455 64.7805 114.254 62.718 114.916 60.6208C115.157 60.6528 118.137 61.009 121.728 58.7357ZM29.0224 69.9447C28.6251 75.7186 28.4792 79.4674 28.1555 81.782C28.1113 81.7367 28.0658 81.69 28.023 81.6433C27.9334 79.6208 27.8143 73.9043 29.0224 69.9447ZM23.0178 59.2293C21.3039 64.6204 20.3098 68.1157 19.4736 70.1902C19.4482 70.1461 19.4214 70.1021 19.3973 70.0581C19.7399 68.2878 20.936 62.7393 23.0178 59.2293ZM20.5573 47.8176C17.4921 52.1173 15.5294 55.0363 14.1165 56.8053C14.0951 56.7186 14.0737 56.6305 14.0536 56.5452C15.1481 54.6121 17.7624 50.2923 20.5573 47.8176ZM21.5742 35.1158C17.4212 38.2829 14.6985 40.4775 12.8254 41.7582C12.8321 41.6635 12.8361 41.5674 12.8428 41.474C14.4978 39.9198 18.2186 36.634 21.5742 35.1158ZM26.0455 24.319C20.9641 26.2975 17.6714 27.6903 15.5187 28.3773C15.5428 28.3079 15.5682 28.2412 15.5909 28.1732C17.4333 27.214 22.207 24.8807 26.0455 24.319ZM31.895 15.5474C26.8309 16.1518 23.4513 16.648 21.2437 16.7961C21.2945 16.7201 21.344 16.644 21.3949 16.568C23.5503 16.0837 28.3187 15.1619 31.895 15.5474ZM34.5842 2.47606C30.3671 5.34167 27.5975 7.33746 25.7057 8.48344L25.5666 8.3527C27.1587 7.00127 31.1136 3.82349 34.5842 2.47606ZM19.408 4.64261C20.2817 8.84231 19.4535 14.9097 19.2743 16.1117C19.2609 16.1331 19.2462 16.1544 19.2314 16.1771C19.0776 14.0319 19.2783 10.4259 19.408 4.64261ZM10.8386 16.6907C12.6234 20.3061 13.3967 25.8425 13.6148 27.6996C13.5894 27.7703 13.568 27.841 13.5439 27.913C12.8656 25.7838 12.1404 22.2165 10.8386 16.6907ZM4.84064 31.9833C7.91788 35.3546 10.4305 41.446 10.769 42.2865C10.7677 42.2985 10.7677 42.3131 10.7663 42.3252C9.50467 40.5241 7.78677 37.2183 4.84064 31.9833ZM3.64453 49.7533C7.40144 51.9626 11.4005 56.6852 12.2581 57.7258C12.2662 57.7565 12.2742 57.7885 12.2822 57.8192C10.5416 56.4504 7.93795 53.8196 3.64453 49.7533ZM7.50848 66.2319C11.1865 67.0591 15.6137 69.6205 17.4801 70.7692C17.5336 70.8639 17.5844 70.9586 17.6366 71.0533C15.5428 70.2008 12.3799 68.5706 7.50848 66.2319ZM15.0571 80.8362C19.2114 80.7668 24.6996 82.4571 26.6195 83.0974C26.6757 83.1561 26.7332 83.2135 26.7894 83.2709C24.4735 82.9547 20.7982 82.0568 15.0571 80.8362ZM25.8877 93.2125C31.1992 92.1799 39.1131 93.5593 39.1131 93.5593C36.7048 93.7247 32.584 93.4419 25.8877 93.2125ZM48.6981 87.3171C51.1451 92.8563 52.7921 96.2795 53.5186 98.4354C53.4959 98.4261 53.4731 98.4181 53.4491 98.4087C52.7533 97.2467 49.5383 91.7236 48.6981 87.3171ZM38.4067 79.3046C39.0315 85.1132 39.5546 88.9581 39.6817 91.4435C39.6041 91.3914 39.5265 91.3421 39.4489 91.29C38.9405 88.9341 37.9103 83.4123 38.4067 79.3046ZM41.504 103.225C44.7619 101.449 49.6333 100.435 51.9934 100.023C52.1165 100.071 52.2436 100.119 52.3667 100.164C50.1537 100.907 46.6671 101.781 41.504 103.225ZM102.115 93.2125C95.4173 93.4433 91.2965 93.7261 88.8882 93.5593C88.8882 93.5593 96.8034 92.1785 102.115 93.2125ZM89.596 79.3046C90.0924 83.4123 89.0635 88.934 88.5551 91.2887C88.4761 91.3407 88.3985 91.3901 88.3223 91.4421C88.448 88.9581 88.9712 85.1119 89.596 79.3046ZM79.3046 87.3171C78.4644 91.725 75.2507 97.2467 74.5536 98.4087C74.5295 98.4181 74.5068 98.4261 74.484 98.4354C75.2105 96.2782 76.8562 92.8563 79.3046 87.3171ZM86.4973 103.225C81.3356 101.781 77.8476 100.907 75.636 100.164C75.7591 100.119 75.8862 100.071 76.0079 100.023C78.368 100.437 83.2408 101.449 86.4973 103.225ZM124.358 49.7533C120.065 53.8196 117.461 56.4504 115.722 57.8192C115.728 57.7885 115.737 57.7565 115.746 57.7258C116.601 56.6879 120.601 51.9626 124.358 49.7533ZM123.162 31.9833C120.216 37.2196 118.499 40.5255 117.236 42.3252C117.236 42.3118 117.235 42.2985 117.235 42.2865C117.572 41.446 120.086 35.3546 123.162 31.9833ZM117.165 16.6907C115.861 22.2165 115.136 25.7838 114.46 27.913C114.435 27.8423 114.413 27.7703 114.388 27.6996C114.606 25.8399 115.378 20.3061 117.165 16.6907ZM108.595 4.64261C108.726 10.4259 108.925 14.0319 108.771 16.1771C108.757 16.1544 108.743 16.1331 108.728 16.1117C108.548 14.9071 107.722 8.84231 108.595 4.64261ZM93.4171 2.47606C96.8877 3.82349 100.843 7.00261 102.435 8.3527L102.296 8.48478C100.405 7.33613 97.6356 5.34167 93.4171 2.47606ZM96.1077 15.5474C99.6853 15.1619 104.451 16.0837 106.609 16.568C106.66 16.644 106.708 16.7214 106.759 16.7961C104.551 16.648 101.172 16.1518 96.1077 15.5474ZM101.956 24.319C105.796 24.8807 110.568 27.2126 112.409 28.1732C112.434 28.2412 112.459 28.3079 112.483 28.3773C110.331 27.6903 107.039 26.2988 101.956 24.319ZM106.43 35.1158C109.784 36.634 113.505 39.9198 115.159 41.4727C115.167 41.5674 115.171 41.6635 115.176 41.7582C113.305 40.4775 110.581 38.2815 106.43 35.1158ZM107.447 47.8176C110.24 50.291 112.855 54.6121 113.948 56.5438C113.926 56.6305 113.906 56.7186 113.886 56.8053C112.473 55.0363 110.511 52.1173 107.447 47.8176ZM104.986 59.2293C107.067 62.7393 108.263 68.2864 108.607 70.0581C108.581 70.1008 108.556 70.1435 108.529 70.1902C107.693 68.1143 106.699 64.6204 104.986 59.2293ZM99.9797 81.646C99.9369 81.6913 99.8914 81.7367 99.8459 81.7834C99.5248 79.4687 99.3763 75.7213 98.9802 69.946C100.188 73.9043 100.068 79.6208 99.9797 81.646ZM112.946 80.8362C107.203 82.0568 103.531 82.9547 101.213 83.2709C101.269 83.2135 101.327 83.1548 101.383 83.0974C103.306 82.4571 108.791 80.7668 112.946 80.8362ZM120.494 66.2319C115.623 68.5706 112.46 70.2008 110.367 71.0533C110.42 70.9586 110.47 70.8639 110.524 70.7692C112.389 69.6205 116.816 67.0591 120.494 66.2319Z"/>
</mask>
<path d="M121.728 58.7357C125.673 56.2383 126.84 49.9028 127.968 46.8997L128 46.6743L127.773 46.6969C121.602 47.3226 118.379 50.6325 116.689 53.1032C117.101 50.4978 117.315 47.8616 117.315 45.2068C117.315 45.1748 117.314 45.1441 117.314 45.1121L117.341 45.1481C117.341 45.1481 120.434 44.7052 123.309 41.3379C126.338 37.7893 125.576 31.3937 125.764 28.1919L125.728 27.9664L125.518 28.0558C119.697 30.5185 117.63 34.7422 116.78 37.6065C116.456 35.3266 115.983 33.0786 115.374 30.876C115.969 30.5585 118.32 29.1351 119.907 25.6398C121.831 21.3934 119.322 15.458 118.614 12.3296L118.518 12.1228L118.34 12.2656C113.763 15.969 112.746 20.2421 112.611 23.2251C111.894 21.6335 111.099 20.0766 110.227 18.5571L110.259 18.5718C110.259 18.5718 112.637 16.6707 113.374 12.4217C114.151 7.94447 110.33 2.95233 108.894 0.172098L108.752 0.00133462L108.62 0.180102C105.077 4.9668 105.306 9.39996 105.967 12.2402C105.433 11.5558 104.879 10.8821 104.308 10.2204C104.213 8.72491 103.449 6.8732 101.699 4.91076C99.7763 2.75222 96.0863 -0.318846 89.6522 0.0653698L89.4301 0.078711L89.4983 0.290831C91.0543 3.00569 93.1709 8.92102 97.36 10.7087C99.7148 11.7133 101.68 11.7893 102.9 11.6839C103.54 12.4297 104.155 13.1914 104.748 13.9679C104.692 13.9452 104.64 13.9238 104.585 13.9025C101.881 12.8726 97.1847 11.844 91.6551 15.1419L91.4624 15.2553L91.6189 15.4127C94.256 17.1056 98.8692 21.3814 103.413 21.0425C105.725 20.8704 107.4 20.1674 108.465 19.5497C109.516 21.3787 110.45 23.2678 111.268 25.2049C111.117 25.0888 110.959 24.9714 110.796 24.8567C108.375 23.141 103.977 20.9171 97.637 22.7741L97.4175 22.8382L97.5339 23.0343C99.7148 25.3916 103.195 30.8173 107.793 31.6445C110.276 32.0914 112.211 31.7619 113.418 31.3937C114.027 33.5909 114.494 35.8348 114.807 38.1121C114.795 38.0974 114.785 38.0841 114.775 38.0694C112.926 35.7535 109.317 32.4022 102.706 32.4369L102.479 32.4383L102.535 32.6597C103.976 35.5267 105.814 41.7021 110.003 43.766C112.159 44.8292 114.028 45.0747 115.292 45.0787C115.292 45.1214 115.294 45.1641 115.294 45.2068C115.294 47.927 115.065 50.6285 114.614 53.2953C114.589 53.23 114.567 53.1646 114.54 53.0979C113.461 50.339 111.006 46.0753 104.683 44.1622L104.464 44.0955L104.452 44.3223C104.981 47.4867 104.906 53.9277 108.296 57.1348C110.064 58.8064 111.799 59.5909 113.007 59.9604C112.242 62.3951 111.284 64.7845 110.147 67.1178C110.143 66.891 110.135 66.6589 110.119 66.4201C109.937 63.4651 108.91 58.6583 103.476 54.9056L103.286 54.7762L103.205 54.9896C102.737 58.1634 100.69 64.2722 102.934 68.3585C104.269 70.7892 105.92 72.1126 106.969 72.7623C105.572 74.9368 104.007 77.0474 102.281 79.0778C102.324 78.8831 102.364 78.6856 102.4 78.4828C102.945 75.4478 103.093 70.3303 98.5187 65.2007L98.3608 65.0233L98.2256 65.218C96.9707 68.3131 93.3904 73.9936 94.6534 78.6803C95.3839 81.3898 96.6723 83.1094 97.5701 84.0446C97.3185 84.2821 97.0697 84.5196 96.8155 84.7544C94.9945 86.426 93.1883 87.9161 91.4062 89.2556C91.4637 89.1128 91.5226 88.9701 91.5761 88.8206C92.7067 85.7629 93.8065 80.4626 89.996 74.2831L89.8636 74.0684L89.6856 74.2485C87.8058 77.2395 83.0281 82.4931 83.4749 87.6026C83.7064 90.2601 84.5587 92.1665 85.2825 93.3525C82.6575 94.8974 80.11 96.1461 77.663 97.1814C77.8971 96.9212 78.1326 96.6451 78.364 96.3462C80.2358 93.9422 82.719 89.5371 81.0814 82.9614L81.0252 82.7346L80.8178 82.844C78.2945 84.9758 72.5534 88.3017 71.5005 92.9763C70.8194 95.9967 71.3185 98.2566 71.7065 99.3959C68.953 100.292 66.3855 100.975 64.0549 101.596C64.0361 101.6 64.0174 101.605 63.9987 101.609C63.9799 101.605 63.9612 101.6 63.9425 101.596C61.6105 100.974 59.043 100.291 56.2908 99.3959C56.6788 98.2566 57.1765 95.9954 56.4969 92.9763C55.4439 88.3017 49.7015 84.9758 47.1795 82.844L46.9708 82.7346L46.9146 82.9614C45.277 89.5371 47.7588 93.9422 49.6333 96.3462C49.8647 96.6451 50.1002 96.9212 50.3344 97.1814C47.8859 96.1461 45.3385 94.8974 42.7135 93.3525C43.4373 92.1665 44.2882 90.2615 44.5197 87.6026C44.9666 82.4931 40.1902 77.2395 38.309 74.2485L38.1338 74.0684L38.0026 74.2831C34.1922 80.464 35.292 85.7629 36.4199 88.8206C36.4761 88.9701 36.5336 89.1128 36.5911 89.2542C34.809 87.9161 33.0041 86.426 31.1832 84.7544C30.9276 84.5196 30.6775 84.2821 30.4259 84.0446C31.3237 83.1108 32.6134 81.3911 33.3426 78.6803C34.6056 73.9936 31.0267 68.3131 29.7703 65.218L29.6352 65.0233L29.4827 65.2007C24.9083 70.3303 25.0541 75.4478 25.6 78.4828C25.6361 78.6856 25.6776 78.8844 25.7191 79.0778C23.9931 77.0474 22.4291 74.9368 21.0323 72.7623C22.0799 72.1139 23.7309 70.7892 25.0662 68.3585C27.3112 64.2722 25.2642 58.1621 24.7946 54.9896L24.7143 54.7762L24.527 54.9056C19.0923 58.657 18.0648 63.4651 17.8828 66.4201C17.8681 66.6602 17.8601 66.8923 17.856 67.1178C16.7188 64.7845 15.7608 62.3951 14.9942 59.9604C16.2024 59.5909 17.9377 58.8064 19.7051 57.1348C23.0967 53.9277 23.0218 47.4867 23.5489 44.3223L23.5382 44.0955L23.3188 44.1622C16.9931 46.0766 14.5407 50.339 13.4609 53.0979C13.4342 53.1646 13.4128 53.23 13.3874 53.2953C12.9378 50.6272 12.7077 47.9256 12.7077 45.2054C12.7077 45.1628 12.709 45.1201 12.709 45.0774C13.972 45.0734 15.8411 44.8279 17.9979 43.7646C22.1869 41.7008 24.0239 35.5253 25.4675 32.6584L25.5237 32.4369L25.295 32.4356C18.6856 32.4009 15.0785 35.7521 13.2281 38.0681C13.2174 38.0828 13.2067 38.0974 13.196 38.1121C13.5091 35.8348 13.9747 33.5909 14.5835 31.3923C15.7916 31.7605 17.7249 32.0901 20.2095 31.6431C24.8093 30.816 28.2892 25.389 30.4701 23.033L30.5851 22.8369L30.3657 22.7728C24.0239 20.9144 19.6275 23.1384 17.2071 24.8553C17.0439 24.9701 16.8874 25.0875 16.7349 25.2035C17.551 23.2664 18.4862 21.3774 19.5378 19.5483C20.6028 20.1647 22.2793 20.8691 24.5899 21.0412C29.1335 21.38 33.748 17.1043 36.3837 15.4113L36.5416 15.2539L36.3503 15.1405C30.8193 11.8413 26.1231 12.8699 23.4205 13.9012C23.3643 13.9225 23.3121 13.9452 23.2559 13.9665C23.8486 13.1901 24.4628 12.4283 25.1023 11.6826C26.3225 11.788 28.2892 11.7119 30.6427 10.7074C34.8317 8.91969 36.9483 3.00436 38.5044 0.289496L38.5726 0.0773776L38.3492 0.0640365C31.9164 -0.32018 28.225 2.75088 26.3024 4.90943C24.5524 6.87187 23.7911 8.72358 23.6948 10.2191C23.1235 10.8808 22.5696 11.5545 22.0344 12.2389C22.6967 9.39862 22.9255 4.96546 19.3826 0.178767L19.2502 0L19.1084 0.170763C17.6727 2.95099 13.8516 7.94314 14.629 12.4203C15.3675 16.6694 17.7437 18.5705 17.7437 18.5705L17.7771 18.5558C16.9034 20.074 16.1087 21.6322 15.3929 23.2237C15.2578 20.2421 14.241 15.9677 9.66389 12.2642L9.48728 12.1215L9.38961 12.3296C8.68051 15.458 6.17322 21.3934 8.09851 25.6398C9.68529 29.1351 12.0347 30.5599 12.6314 30.876C12.0213 33.0786 11.549 35.3266 11.2253 37.6065C10.3743 34.7436 8.30588 30.5185 2.48454 28.0558L2.27449 27.9664L2.23836 28.1919C2.42567 31.3937 1.66305 37.7893 4.69213 41.3379C7.56735 44.7065 10.6593 45.1481 10.6593 45.1481L10.6874 45.1121C10.6874 45.1441 10.6861 45.1748 10.6861 45.2068C10.6861 47.8616 10.9001 50.4964 11.3109 53.1019C9.62241 50.6312 6.39799 47.3226 0.227449 46.6969L0 46.6743L0.0321103 46.8997C1.15999 49.9028 2.32666 56.2383 6.27223 58.7357C9.86591 61.0103 12.8442 60.6541 13.0796 60.6208C13.7419 62.7166 14.5407 64.7805 15.4678 66.8056C13.0569 65.0366 9.08322 63.1409 3.31673 64.3642L3.0933 64.4109L3.19365 64.6164C5.1885 67.1311 8.243 72.8063 12.7652 73.9803C15.9923 74.8181 18.3685 74.2311 19.3492 73.8896C20.6001 75.8347 21.9769 77.7291 23.4821 79.5634C20.6175 78.3187 16.0351 77.2515 10.3529 79.973L10.1375 80.0771L10.29 80.2598C12.9298 82.3157 17.4212 87.3091 22.2873 87.3892C26.0054 87.4492 28.3294 86.0965 29.096 85.5682C29.3355 85.7923 29.571 86.0177 29.8145 86.2419C31.4882 87.7774 33.1473 89.1648 34.7889 90.4269C31.598 89.5971 26.4549 89.1475 20.8316 93.1804L20.6282 93.3259L20.8209 93.4873C23.9477 95.1402 29.5469 99.512 34.6257 98.6995C39.4476 97.9244 41.6324 95.279 41.6324 95.279L41.5709 95.1295C41.5522 95.0828 41.5294 95.0388 41.5094 94.9908C43.6741 96.2768 45.7867 97.3615 47.8364 98.2953C44.7846 98.6008 40.534 99.8789 36.9952 104.623L36.856 104.812L37.0728 104.902C40.3266 105.49 46.5493 107.801 50.8401 105.643C53.6778 104.216 55.1134 102.342 55.7262 101.336C57.2648 101.835 58.7486 102.27 60.1641 102.664C56.0915 103.852 52.8202 105.162 50.6019 107.665L52.1165 109C54.5114 106.298 58.6991 105.111 63.9987 103.698C69.2982 105.111 73.4859 106.297 75.8808 109L77.3967 107.665C75.1784 105.162 71.9058 103.852 67.8345 102.664C69.2514 102.27 70.7351 101.835 72.2738 101.336C72.8839 102.342 74.3221 104.215 77.1586 105.643C81.448 107.801 87.672 105.491 90.9246 104.902L91.1413 104.812L91.0022 104.623C87.462 99.8775 83.2127 98.5995 80.1595 98.2953C82.2079 97.3628 84.3219 96.2768 86.4853 94.9921C86.4652 95.0375 86.4425 95.0815 86.4238 95.1295L86.3635 95.279C86.3635 95.279 88.5484 97.9244 93.3689 98.6995C98.4477 99.5107 104.047 95.1402 107.174 93.4873L107.368 93.3259L107.163 93.1804C101.542 89.1475 96.398 89.5958 93.2071 90.4269C94.8474 89.1662 96.5077 87.7787 98.1815 86.2419C98.4237 86.0177 98.6591 85.7923 98.8986 85.5682C99.6653 86.0965 101.991 87.4492 105.707 87.3892C110.573 87.3091 115.065 82.3157 117.705 80.2598L117.857 80.0771L117.643 79.973C111.96 77.2501 107.377 78.3201 104.513 79.5634C106.019 77.7291 107.396 75.8347 108.647 73.8896C109.629 74.2324 112.004 74.8181 115.231 73.9803C119.754 72.8063 122.807 67.1311 124.804 64.6164L124.903 64.4109L124.679 64.3642C118.913 63.1409 114.94 65.0366 112.529 66.8056C113.455 64.7805 114.254 62.718 114.916 60.6208C115.157 60.6528 118.137 61.009 121.728 58.7357ZM29.0224 69.9447C28.6251 75.7186 28.4792 79.4674 28.1555 81.782C28.1113 81.7367 28.0658 81.69 28.023 81.6433C27.9334 79.6208 27.8143 73.9043 29.0224 69.9447ZM23.0178 59.2293C21.3039 64.6204 20.3098 68.1157 19.4736 70.1902C19.4482 70.1461 19.4214 70.1021 19.3973 70.0581C19.7399 68.2878 20.936 62.7393 23.0178 59.2293ZM20.5573 47.8176C17.4921 52.1173 15.5294 55.0363 14.1165 56.8053C14.0951 56.7186 14.0737 56.6305 14.0536 56.5452C15.1481 54.6121 17.7624 50.2923 20.5573 47.8176ZM21.5742 35.1158C17.4212 38.2829 14.6985 40.4775 12.8254 41.7582C12.8321 41.6635 12.8361 41.5674 12.8428 41.474C14.4978 39.9198 18.2186 36.634 21.5742 35.1158ZM26.0455 24.319C20.9641 26.2975 17.6714 27.6903 15.5187 28.3773C15.5428 28.3079 15.5682 28.2412 15.5909 28.1732C17.4333 27.214 22.207 24.8807 26.0455 24.319ZM31.895 15.5474C26.8309 16.1518 23.4513 16.648 21.2437 16.7961C21.2945 16.7201 21.344 16.644 21.3949 16.568C23.5503 16.0837 28.3187 15.1619 31.895 15.5474ZM34.5842 2.47606C30.3671 5.34167 27.5975 7.33746 25.7057 8.48344L25.5666 8.3527C27.1587 7.00127 31.1136 3.82349 34.5842 2.47606ZM19.408 4.64261C20.2817 8.84231 19.4535 14.9097 19.2743 16.1117C19.2609 16.1331 19.2462 16.1544 19.2314 16.1771C19.0776 14.0319 19.2783 10.4259 19.408 4.64261ZM10.8386 16.6907C12.6234 20.3061 13.3967 25.8425 13.6148 27.6996C13.5894 27.7703 13.568 27.841 13.5439 27.913C12.8656 25.7838 12.1404 22.2165 10.8386 16.6907ZM4.84064 31.9833C7.91788 35.3546 10.4305 41.446 10.769 42.2865C10.7677 42.2985 10.7677 42.3131 10.7663 42.3252C9.50467 40.5241 7.78677 37.2183 4.84064 31.9833ZM3.64453 49.7533C7.40144 51.9626 11.4005 56.6852 12.2581 57.7258C12.2662 57.7565 12.2742 57.7885 12.2822 57.8192C10.5416 56.4504 7.93795 53.8196 3.64453 49.7533ZM7.50848 66.2319C11.1865 67.0591 15.6137 69.6205 17.4801 70.7692C17.5336 70.8639 17.5844 70.9586 17.6366 71.0533C15.5428 70.2008 12.3799 68.5706 7.50848 66.2319ZM15.0571 80.8362C19.2114 80.7668 24.6996 82.4571 26.6195 83.0974C26.6757 83.1561 26.7332 83.2135 26.7894 83.2709C24.4735 82.9547 20.7982 82.0568 15.0571 80.8362ZM25.8877 93.2125C31.1992 92.1799 39.1131 93.5593 39.1131 93.5593C36.7048 93.7247 32.584 93.4419 25.8877 93.2125ZM48.6981 87.3171C51.1451 92.8563 52.7921 96.2795 53.5186 98.4354C53.4959 98.4261 53.4731 98.4181 53.4491 98.4087C52.7533 97.2467 49.5383 91.7236 48.6981 87.3171ZM38.4067 79.3046C39.0315 85.1132 39.5546 88.9581 39.6817 91.4435C39.6041 91.3914 39.5265 91.3421 39.4489 91.29C38.9405 88.9341 37.9103 83.4123 38.4067 79.3046ZM41.504 103.225C44.7619 101.449 49.6333 100.435 51.9934 100.023C52.1165 100.071 52.2436 100.119 52.3667 100.164C50.1537 100.907 46.6671 101.781 41.504 103.225ZM102.115 93.2125C95.4173 93.4433 91.2965 93.7261 88.8882 93.5593C88.8882 93.5593 96.8034 92.1785 102.115 93.2125ZM89.596 79.3046C90.0924 83.4123 89.0635 88.934 88.5551 91.2887C88.4761 91.3407 88.3985 91.3901 88.3223 91.4421C88.448 88.9581 88.9712 85.1119 89.596 79.3046ZM79.3046 87.3171C78.4644 91.725 75.2507 97.2467 74.5536 98.4087C74.5295 98.4181 74.5068 98.4261 74.484 98.4354C75.2105 96.2782 76.8562 92.8563 79.3046 87.3171ZM86.4973 103.225C81.3356 101.781 77.8476 100.907 75.636 100.164C75.7591 100.119 75.8862 100.071 76.0079 100.023C78.368 100.437 83.2408 101.449 86.4973 103.225ZM124.358 49.7533C120.065 53.8196 117.461 56.4504 115.722 57.8192C115.728 57.7885 115.737 57.7565 115.746 57.7258C116.601 56.6879 120.601 51.9626 124.358 49.7533ZM123.162 31.9833C120.216 37.2196 118.499 40.5255 117.236 42.3252C117.236 42.3118 117.235 42.2985 117.235 42.2865C117.572 41.446 120.086 35.3546 123.162 31.9833ZM117.165 16.6907C115.861 22.2165 115.136 25.7838 114.46 27.913C114.435 27.8423 114.413 27.7703 114.388 27.6996C114.606 25.8399 115.378 20.3061 117.165 16.6907ZM108.595 4.64261C108.726 10.4259 108.925 14.0319 108.771 16.1771C108.757 16.1544 108.743 16.1331 108.728 16.1117C108.548 14.9071 107.722 8.84231 108.595 4.64261ZM93.4171 2.47606C96.8877 3.82349 100.843 7.00261 102.435 8.3527L102.296 8.48478C100.405 7.33613 97.6356 5.34167 93.4171 2.47606ZM96.1077 15.5474C99.6853 15.1619 104.451 16.0837 106.609 16.568C106.66 16.644 106.708 16.7214 106.759 16.7961C104.551 16.648 101.172 16.1518 96.1077 15.5474ZM101.956 24.319C105.796 24.8807 110.568 27.2126 112.409 28.1732C112.434 28.2412 112.459 28.3079 112.483 28.3773C110.331 27.6903 107.039 26.2988 101.956 24.319ZM106.43 35.1158C109.784 36.634 113.505 39.9198 115.159 41.4727C115.167 41.5674 115.171 41.6635 115.176 41.7582C113.305 40.4775 110.581 38.2815 106.43 35.1158ZM107.447 47.8176C110.24 50.291 112.855 54.6121 113.948 56.5438C113.926 56.6305 113.906 56.7186 113.886 56.8053C112.473 55.0363 110.511 52.1173 107.447 47.8176ZM104.986 59.2293C107.067 62.7393 108.263 68.2864 108.607 70.0581C108.581 70.1008 108.556 70.1435 108.529 70.1902C107.693 68.1143 106.699 64.6204 104.986 59.2293ZM99.9797 81.646C99.9369 81.6913 99.8914 81.7367 99.8459 81.7834C99.5248 79.4687 99.3763 75.7213 98.9802 69.946C100.188 73.9043 100.068 79.6208 99.9797 81.646ZM112.946 80.8362C107.203 82.0568 103.531 82.9547 101.213 83.2709C101.269 83.2135 101.327 83.1548 101.383 83.0974C103.306 82.4571 108.791 80.7668 112.946 80.8362ZM120.494 66.2319C115.623 68.5706 112.46 70.2008 110.367 71.0533C110.42 70.9586 110.47 70.8639 110.524 70.7692C112.389 69.6205 116.816 67.0591 120.494 66.2319Z" fill="#1F4037" stroke="black" stroke-width="0.712142" mask="url(#path-1-inside-1_183_174)"/>
<path d="M57.7327 61.7474V62.1034H58.0888H63.7851H64.1411V61.7474V60.9236V60.5676H63.7851H63.5911C63.4826 60.5676 63.3894 60.5315 63.2965 60.4385C63.1686 60.3044 63.0519 60.1472 62.9473 59.9652C62.848 59.7871 62.7775 59.5947 62.7363 59.3864L62.7363 59.3864L62.7351 59.3806C62.6853 59.1496 62.6622 58.9468 62.6622 58.7705V37.8999C62.6622 37.7547 62.6842 37.5758 62.734 37.36L62.7341 37.3601L62.736 37.3508C62.7771 37.148 62.8473 36.9612 62.9464 36.7885L62.6404 36.613L62.9464 36.7885C63.0492 36.6093 63.1626 36.4613 63.285 36.3412C63.3747 36.2617 63.4716 36.2252 63.5911 36.2252H63.7851H64.1411V35.8691V35.4777V35.1216H63.7851H59.3968H59.1602L59.0686 35.3397L50.4021 55.9676L41.7277 35.3396L41.636 35.1216H41.3995H37.4396H37.0835V35.4777V35.8691V36.2252H37.4396H37.6335C37.7146 36.2252 37.8011 36.2531 37.9014 36.3431C38.0233 36.4583 38.1271 36.5991 38.2115 36.7694C38.3001 36.9482 38.3689 37.1432 38.4169 37.3554C38.4615 37.5714 38.4816 37.7519 38.4816 37.8999V58.7705C38.4816 58.9487 38.4608 59.1525 38.4162 59.3834C38.3681 59.6004 38.2993 59.8003 38.2107 59.9842C38.1248 60.1573 38.0177 60.3074 37.8897 60.4365C37.7852 60.542 37.7022 60.5676 37.6335 60.5676H37.6113L37.5892 60.5703L36.6832 60.684L36.3715 60.7232V61.0373V61.7474V62.1034H36.7275H42.4239H42.7799V61.7474V61.0373V60.7216L42.4665 60.6838L41.5229 60.5701L41.5017 60.5676H41.4803C41.3718 60.5676 41.2786 60.5315 41.1858 60.4386C41.0579 60.3045 40.9412 60.1473 40.8366 59.9653C40.7372 59.7872 40.6667 59.5948 40.6254 59.3864L40.6255 59.3864L40.6243 59.3806C40.5745 59.1496 40.5514 58.9468 40.5514 58.7705V41.1401L49.3714 61.8867L49.6992 62.6578L50.0268 61.8866L59.356 39.9261V58.7705C59.356 58.9466 59.333 59.149 59.2833 59.3797C59.2366 59.5918 59.1649 59.7876 59.0691 59.9683C58.9655 60.148 58.8474 60.3035 58.7156 60.4365L58.7156 60.4365L58.7112 60.441C58.6137 60.5429 58.5351 60.5676 58.4675 60.5676H58.4152L58.3651 60.5826L57.9864 60.6963L57.7327 60.7725V61.0373V61.7474Z" fill="black" stroke="#1F4037" stroke-width="0.712142"/>
<path d="M82.3453 62.022C83.1388 61.9733 83.9169 61.9029 84.6794 61.8109C85.442 61.7188 86.1737 61.6077 86.8744 61.4775C87.5798 61.3463 88.2164 61.187 88.7827 60.9984L89.0263 60.9173V60.6606V50.3105C89.0263 50.1758 89.0545 50.0076 89.122 49.8016C89.1898 49.5944 89.2771 49.4004 89.3835 49.2191L89.3855 49.2156C89.4811 49.0485 89.5988 48.9127 89.7386 48.8043C89.7418 48.8029 89.7467 48.8008 89.7537 48.7982C89.7779 48.7892 89.8136 48.7784 89.8616 48.7668C89.9576 48.7437 90.0799 48.723 90.2114 48.7057C90.4765 48.6709 90.7429 48.6545 90.8427 48.6545H91.1988V48.2984V47.5473V47.1912H90.8427H83.0102H82.6542V47.5473V48.2984V48.6545H83.0102H84.136C84.2973 48.6545 84.4298 48.7011 84.5476 48.7947L84.5476 48.7947L84.5528 48.7987C84.6994 48.9106 84.8288 49.0527 84.9402 49.2291L84.9401 49.2292L84.9467 49.239C85.063 49.41 85.1464 49.5901 85.1988 49.7802C85.2498 49.989 85.2725 50.1648 85.2725 50.3105V59.1639C84.5268 59.5071 83.7831 59.7263 83.0407 59.8247L83.0382 59.8251C82.2036 59.9418 81.5128 59.9987 80.9621 59.9987C78.9186 59.9987 77.067 59.6517 75.4023 58.9634C73.7317 58.2701 72.3119 57.3646 71.1376 56.2495L71.137 56.2489C69.96 55.1363 69.0524 53.8753 68.4111 52.4649L68.4107 52.4642C67.7628 51.0476 67.4417 49.6224 67.4417 48.1857C67.4417 46.8911 67.6907 45.5873 68.1929 44.2725L68.1934 44.2711C68.6852 42.9674 69.4415 41.7937 70.4665 40.7489L70.4671 40.7483C71.4854 39.7051 72.8024 38.8475 74.4281 38.1811C76.0382 37.5212 77.9551 37.1856 80.1875 37.1856C80.839 37.1856 81.5428 37.2301 82.2993 37.32L82.302 37.3203C83.0492 37.4031 83.7542 37.5684 84.4181 37.8152C85.0678 38.0567 85.638 38.4077 86.1319 38.8685L86.1333 38.8699C86.6024 39.3028 86.9262 39.8796 87.0951 40.6191L87.1632 40.9172L87.4681 40.8949L88.0204 40.8547L88.3506 40.8306V40.4996V36.5424V36.2495L88.0631 36.193L87.5581 36.0938L87.5241 36.0871H87.4894C87.3094 36.0871 87.0881 36.0599 86.8221 35.9994L86.8204 35.999C86.5285 35.9342 86.1866 35.8613 85.7949 35.7806L85.7949 35.7805L85.7875 35.7792C85.0862 35.6499 84.2814 35.5101 83.3734 35.3597C82.4443 35.2003 81.4418 35.1213 80.367 35.1213C77.5277 35.1213 75.0593 35.5036 72.9696 36.2784L72.9689 36.2787C70.8937 37.0536 69.1581 38.0733 67.7709 39.3436L67.7709 39.3436L67.7697 39.3447C66.3935 40.6163 65.3673 42.0639 64.6975 43.6869C64.0257 45.2942 63.6879 46.9233 63.6879 48.572C63.6879 50.2207 64.0257 51.8499 64.6975 53.4571C65.3668 55.079 66.3858 56.5312 67.7485 57.8133C69.1168 59.1007 70.8371 60.1347 72.9002 60.9208C74.9712 61.7123 77.3871 62.1032 80.1403 62.1032C80.8168 62.1032 81.552 62.076 82.3453 62.022ZM82.3453 62.022C82.3457 62.0219 82.3462 62.0219 82.3466 62.0219L82.3224 61.6666L82.3442 62.022C82.3446 62.022 82.3449 62.022 82.3453 62.022ZM84.7689 48.5157C84.9516 48.6552 85.109 48.8296 85.2412 49.0388C85.3798 49.2427 85.4805 49.46 85.5435 49.6907L84.7689 48.5157ZM84.7689 48.5157C84.5863 48.3708 84.3753 48.2984 84.136 48.2984H83.3663L84.7689 48.5157Z" fill="black" stroke="#1F4037" stroke-width="0.712142"/>
</svg>
