<svg width="203" height="42" viewBox="0 0 203 42" fill="none" xmlns="http://www.w3.org/2000/svg">
<g filter="url(#filter0_d_121_1490)">
<rect width="203" height="40" rx="8" fill="white"/>
<rect x="0.5" y="0.5" width="202" height="39" rx="7.5" stroke="#D3AF37"/>
<g clip-path="url(#clip0_121_1490)">
<path d="M33.3976 22.348C33.1056 22.198 31.6511 21.4855 31.3806 21.389C31.1101 21.2872 30.9119 21.239 30.7163 21.539C30.5181 21.8363 29.9556 22.498 29.7788 22.6988C29.6074 22.8971 29.4333 22.9212 29.1413 22.7738C27.4056 21.906 26.2672 21.2256 25.1235 19.2622C24.8208 18.7399 25.4261 18.7774 25.9913 17.6497C26.0877 17.4515 26.0395 17.2828 25.9645 17.1328C25.8895 16.9828 25.3002 15.531 25.0538 14.939C24.8154 14.3631 24.569 14.4435 24.3895 14.4328C24.2181 14.4221 24.0226 14.4221 23.8244 14.4221C23.6261 14.4221 23.3074 14.4971 23.0369 14.789C22.7663 15.0863 22.0029 15.8015 22.0029 17.2533C22.0029 18.7051 23.061 20.1113 23.2056 20.3096C23.3556 20.5078 25.2869 23.4863 28.252 24.7694C30.127 25.5783 30.861 25.648 31.7985 25.5087C32.369 25.423 33.5449 24.7962 33.7886 24.1024C34.0324 23.4113 34.0324 22.8194 33.9601 22.6962C33.8877 22.5649 33.6895 22.4899 33.3976 22.348Z" fill="#1F4037"/>
<path d="M39.068 15.35C38.4627 13.9116 37.5948 12.6205 36.4885 11.5116C35.39 10.4091 34.086 9.53274 32.6502 8.93214C31.1769 8.31339 29.6127 8 28.0002 8H27.9466C26.3234 8.00804 24.751 8.32946 23.2725 8.96161C21.849 9.56836 20.5571 10.4463 19.4689 11.5464C18.3734 12.6527 17.5135 13.9384 16.9189 15.3714C16.3028 16.8554 15.9921 18.433 16.0002 20.0562C16.0092 21.9164 16.4493 23.7492 17.2859 25.4107V29.4821C17.2859 29.8089 17.4157 30.1223 17.6468 30.3534C17.8778 30.5845 18.1912 30.7143 18.518 30.7143H22.5921C24.2536 31.5508 26.0864 31.9909 27.9466 32H28.0028C29.6073 32 31.1635 31.6893 32.6287 31.0813C34.0573 30.4878 35.3565 29.6217 36.4537 28.5312C37.56 27.4357 38.4305 26.1554 39.0385 24.7277C39.6707 23.2491 39.9921 21.6768 40.0002 20.0536C40.0082 18.4223 39.6921 16.8393 39.068 15.35ZM35.0207 27.0821C33.143 28.9411 30.6519 29.9643 28.0002 29.9643H27.9546C26.3394 29.9563 24.735 29.5545 23.318 28.7991L23.093 28.6786H19.3216V24.9071L19.201 24.6821C18.4457 23.2652 18.0439 21.6607 18.0359 20.0455C18.0252 17.375 19.0457 14.8679 20.918 12.9795C22.7877 11.0911 25.2868 10.0464 27.9573 10.0357H28.0028C29.3421 10.0357 30.6412 10.2955 31.8653 10.8098C33.06 11.3107 34.1314 12.0312 35.0528 12.9527C35.9716 13.8714 36.6948 14.9455 37.1957 16.1402C37.7153 17.3777 37.9752 18.6902 37.9698 20.0455C37.9537 22.7134 36.9064 25.2125 35.0207 27.0821Z" fill="#1F4037"/>
</g>
<path d="M57.3662 21.835H58.6787C58.6104 22.4639 58.4303 23.0267 58.1387 23.5234C57.847 24.0202 57.4346 24.4144 56.9014 24.7061C56.3682 24.9932 55.7028 25.1367 54.9053 25.1367C54.3219 25.1367 53.791 25.0273 53.3125 24.8086C52.8385 24.5898 52.4307 24.2799 52.0889 23.8789C51.7471 23.4733 51.4827 22.988 51.2959 22.4229C51.1136 21.8532 51.0225 21.2197 51.0225 20.5225V19.5312C51.0225 18.834 51.1136 18.2028 51.2959 17.6377C51.4827 17.068 51.7493 16.5804 52.0957 16.1748C52.4466 15.7692 52.8682 15.457 53.3604 15.2383C53.8525 15.0195 54.4062 14.9102 55.0215 14.9102C55.7734 14.9102 56.4092 15.0514 56.9287 15.334C57.4482 15.6165 57.8516 16.0085 58.1387 16.5098C58.4303 17.0065 58.6104 17.583 58.6787 18.2393H57.3662C57.3024 17.7744 57.1839 17.3757 57.0107 17.043C56.8376 16.7057 56.5915 16.446 56.2725 16.2637C55.9535 16.0814 55.5365 15.9902 55.0215 15.9902C54.5794 15.9902 54.1898 16.0745 53.8525 16.2432C53.5199 16.4118 53.2396 16.651 53.0117 16.9609C52.7884 17.2708 52.6198 17.6423 52.5059 18.0752C52.3919 18.5081 52.335 18.9889 52.335 19.5176V20.5225C52.335 21.0101 52.3851 21.4681 52.4854 21.8965C52.5902 22.3249 52.7474 22.7008 52.957 23.0244C53.1667 23.348 53.4333 23.6032 53.7568 23.79C54.0804 23.9723 54.4632 24.0635 54.9053 24.0635C55.4658 24.0635 55.9124 23.9746 56.2451 23.7969C56.5778 23.6191 56.8285 23.3639 56.9971 23.0312C57.1702 22.6986 57.2933 22.2998 57.3662 21.835ZM59.9502 21.3838V21.2266C59.9502 20.6934 60.0277 20.1989 60.1826 19.7432C60.3376 19.2829 60.5609 18.8841 60.8525 18.5469C61.1442 18.2051 61.4974 17.9408 61.9121 17.7539C62.3268 17.5625 62.7917 17.4668 63.3066 17.4668C63.8262 17.4668 64.2933 17.5625 64.708 17.7539C65.1273 17.9408 65.4827 18.2051 65.7744 18.5469C66.0706 18.8841 66.2962 19.2829 66.4512 19.7432C66.6061 20.1989 66.6836 20.6934 66.6836 21.2266V21.3838C66.6836 21.917 66.6061 22.4115 66.4512 22.8672C66.2962 23.3229 66.0706 23.7217 65.7744 24.0635C65.4827 24.4007 65.1296 24.665 64.7148 24.8564C64.3047 25.0433 63.8398 25.1367 63.3203 25.1367C62.8008 25.1367 62.3337 25.0433 61.9189 24.8564C61.5042 24.665 61.1488 24.4007 60.8525 24.0635C60.5609 23.7217 60.3376 23.3229 60.1826 22.8672C60.0277 22.4115 59.9502 21.917 59.9502 21.3838ZM61.2148 21.2266V21.3838C61.2148 21.7529 61.2581 22.1016 61.3447 22.4297C61.4313 22.7533 61.5612 23.0404 61.7344 23.291C61.9121 23.5417 62.1331 23.7399 62.3975 23.8857C62.6618 24.027 62.9694 24.0977 63.3203 24.0977C63.6667 24.0977 63.9697 24.027 64.2295 23.8857C64.4938 23.7399 64.7126 23.5417 64.8857 23.291C65.0589 23.0404 65.1888 22.7533 65.2754 22.4297C65.3665 22.1016 65.4121 21.7529 65.4121 21.3838V21.2266C65.4121 20.862 65.3665 20.5179 65.2754 20.1943C65.1888 19.8662 65.0566 19.5768 64.8789 19.3262C64.7057 19.071 64.487 18.8704 64.2227 18.7246C63.9629 18.5788 63.6576 18.5059 63.3066 18.5059C62.9603 18.5059 62.6549 18.5788 62.3906 18.7246C62.1309 18.8704 61.9121 19.071 61.7344 19.3262C61.5612 19.5768 61.4313 19.8662 61.3447 20.1943C61.2581 20.5179 61.2148 20.862 61.2148 21.2266ZM69.5342 19.1826V25H68.2695V17.6035H69.4658L69.5342 19.1826ZM69.2334 21.0215L68.707 21.001C68.7116 20.4951 68.7868 20.028 68.9326 19.5996C69.0785 19.1667 69.2835 18.7907 69.5479 18.4717C69.8122 18.1527 70.1266 17.9066 70.4912 17.7334C70.8604 17.5557 71.2682 17.4668 71.7148 17.4668C72.0794 17.4668 72.4076 17.5169 72.6992 17.6172C72.9909 17.7129 73.2393 17.8678 73.4443 18.082C73.654 18.2962 73.8135 18.5742 73.9229 18.916C74.0322 19.2533 74.0869 19.6657 74.0869 20.1533V25H72.8154V20.1396C72.8154 19.7523 72.7585 19.4424 72.6445 19.21C72.5306 18.973 72.3643 18.8021 72.1455 18.6973C71.9268 18.5879 71.6579 18.5332 71.3389 18.5332C71.0244 18.5332 70.7373 18.5993 70.4775 18.7314C70.2223 18.8636 70.0013 19.0459 69.8145 19.2783C69.6322 19.5107 69.4886 19.7773 69.3838 20.0781C69.2835 20.3743 69.2334 20.6888 69.2334 21.0215ZM79.1045 17.6035V18.5742H75.1055V17.6035H79.1045ZM76.459 15.8057H77.7236V23.168C77.7236 23.4186 77.7624 23.6077 77.8398 23.7354C77.9173 23.863 78.0176 23.9473 78.1406 23.9883C78.2637 24.0293 78.3958 24.0498 78.5371 24.0498C78.6419 24.0498 78.7513 24.0407 78.8652 24.0225C78.9837 23.9997 79.0726 23.9814 79.1318 23.9678L79.1387 25C79.0384 25.0319 78.9062 25.0615 78.7422 25.0889C78.5827 25.1208 78.389 25.1367 78.1611 25.1367C77.8512 25.1367 77.5664 25.0752 77.3066 24.9521C77.0469 24.8291 76.8395 24.624 76.6846 24.3369C76.5342 24.0452 76.459 23.6533 76.459 23.1611V15.8057ZM84.9492 23.7354V19.9277C84.9492 19.6361 84.89 19.3831 84.7715 19.1689C84.6576 18.9502 84.4844 18.7816 84.252 18.6631C84.0195 18.5446 83.7324 18.4854 83.3906 18.4854C83.0716 18.4854 82.7913 18.54 82.5498 18.6494C82.3128 18.7588 82.126 18.9023 81.9893 19.0801C81.8571 19.2578 81.791 19.4492 81.791 19.6543H80.5264C80.5264 19.39 80.5947 19.1279 80.7314 18.8682C80.8682 18.6084 81.0641 18.3737 81.3193 18.1641C81.5791 17.9499 81.889 17.7812 82.249 17.6582C82.6136 17.5306 83.0192 17.4668 83.4658 17.4668C84.0036 17.4668 84.4775 17.5579 84.8877 17.7402C85.3024 17.9225 85.626 18.1982 85.8584 18.5674C86.0954 18.932 86.2139 19.39 86.2139 19.9414V23.3867C86.2139 23.6328 86.2344 23.8949 86.2754 24.1729C86.321 24.4508 86.387 24.6901 86.4736 24.8906V25H85.1543C85.0905 24.8542 85.0404 24.6605 85.0039 24.4189C84.9674 24.1729 84.9492 23.945 84.9492 23.7354ZM85.168 20.5156L85.1816 21.4043H83.9033C83.5433 21.4043 83.222 21.4339 82.9395 21.4932C82.6569 21.5479 82.4199 21.6322 82.2285 21.7461C82.0371 21.86 81.8913 22.0036 81.791 22.1768C81.6908 22.3454 81.6406 22.5436 81.6406 22.7715C81.6406 23.0039 81.693 23.2158 81.7979 23.4072C81.9027 23.5986 82.0599 23.7513 82.2695 23.8652C82.4837 23.9746 82.7458 24.0293 83.0557 24.0293C83.443 24.0293 83.7848 23.9473 84.0811 23.7832C84.3773 23.6191 84.612 23.4186 84.7852 23.1816C84.9629 22.9447 85.0586 22.7145 85.0723 22.4912L85.6123 23.0996C85.5804 23.291 85.4938 23.5029 85.3525 23.7354C85.2113 23.9678 85.0221 24.1911 84.7852 24.4053C84.5527 24.6149 84.2747 24.7904 83.9512 24.9316C83.6322 25.0684 83.2721 25.1367 82.8711 25.1367C82.3698 25.1367 81.93 25.0387 81.5518 24.8428C81.1781 24.6468 80.8864 24.3848 80.6768 24.0566C80.4717 23.724 80.3691 23.3525 80.3691 22.9424C80.3691 22.5459 80.4466 22.1973 80.6016 21.8965C80.7565 21.5911 80.9798 21.3382 81.2715 21.1377C81.5632 20.9326 81.9141 20.7777 82.3242 20.6729C82.7344 20.568 83.1924 20.5156 83.6982 20.5156H85.168ZM91.1631 24.0977C91.4639 24.0977 91.7419 24.0361 91.9971 23.9131C92.2523 23.79 92.4619 23.6214 92.626 23.4072C92.79 23.1885 92.8835 22.9401 92.9062 22.6621H94.1094C94.0866 23.0996 93.9385 23.5075 93.665 23.8857C93.3962 24.2594 93.043 24.5625 92.6055 24.7949C92.168 25.0228 91.6872 25.1367 91.1631 25.1367C90.6071 25.1367 90.1217 25.0387 89.707 24.8428C89.2969 24.6468 88.9551 24.3779 88.6816 24.0361C88.4128 23.6943 88.21 23.3024 88.0732 22.8604C87.9411 22.4137 87.875 21.9421 87.875 21.4453V21.1582C87.875 20.6615 87.9411 20.1921 88.0732 19.75C88.21 19.3034 88.4128 18.9092 88.6816 18.5674C88.9551 18.2256 89.2969 17.9567 89.707 17.7607C90.1217 17.5648 90.6071 17.4668 91.1631 17.4668C91.7419 17.4668 92.2477 17.5853 92.6807 17.8223C93.1136 18.0547 93.4531 18.3737 93.6992 18.7793C93.9499 19.1803 94.0866 19.6361 94.1094 20.1465H92.9062C92.8835 19.8411 92.7969 19.5654 92.6465 19.3193C92.5007 19.0732 92.3001 18.8773 92.0449 18.7314C91.7943 18.5811 91.5003 18.5059 91.1631 18.5059C90.7757 18.5059 90.4499 18.5833 90.1855 18.7383C89.9258 18.8887 89.7184 19.0938 89.5635 19.3535C89.4131 19.6087 89.3037 19.8936 89.2354 20.208C89.1715 20.5179 89.1396 20.8346 89.1396 21.1582V21.4453C89.1396 21.7689 89.1715 22.0879 89.2354 22.4023C89.2992 22.7168 89.4062 23.0016 89.5566 23.2568C89.7116 23.512 89.9189 23.7171 90.1787 23.8721C90.443 24.0225 90.7712 24.0977 91.1631 24.0977ZM98.6279 17.6035V18.5742H94.6289V17.6035H98.6279ZM95.9824 15.8057H97.2471V23.168C97.2471 23.4186 97.2858 23.6077 97.3633 23.7354C97.4408 23.863 97.541 23.9473 97.6641 23.9883C97.7871 24.0293 97.9193 24.0498 98.0605 24.0498C98.1654 24.0498 98.2747 24.0407 98.3887 24.0225C98.5072 23.9997 98.596 23.9814 98.6553 23.9678L98.6621 25C98.5618 25.0319 98.4297 25.0615 98.2656 25.0889C98.1061 25.1208 97.9124 25.1367 97.6846 25.1367C97.3747 25.1367 97.0898 25.0752 96.8301 24.9521C96.5703 24.8291 96.363 24.624 96.208 24.3369C96.0576 24.0452 95.9824 23.6533 95.9824 23.1611V15.8057ZM105.833 23.8584L107.856 17.6035H109.148L106.489 25H105.642L105.833 23.8584ZM104.145 17.6035L106.229 23.8926L106.373 25H105.525L102.846 17.6035H104.145ZM111.739 17.6035V25H110.468V17.6035H111.739ZM110.372 15.6416C110.372 15.4365 110.434 15.2633 110.557 15.1221C110.684 14.9808 110.871 14.9102 111.117 14.9102C111.359 14.9102 111.543 14.9808 111.671 15.1221C111.803 15.2633 111.869 15.4365 111.869 15.6416C111.869 15.8376 111.803 16.0062 111.671 16.1475C111.543 16.2842 111.359 16.3525 111.117 16.3525C110.871 16.3525 110.684 16.2842 110.557 16.1475C110.434 16.0062 110.372 15.8376 110.372 15.6416ZM118.131 23.7354V19.9277C118.131 19.6361 118.072 19.3831 117.953 19.1689C117.839 18.9502 117.666 18.7816 117.434 18.6631C117.201 18.5446 116.914 18.4854 116.572 18.4854C116.253 18.4854 115.973 18.54 115.731 18.6494C115.494 18.7588 115.308 18.9023 115.171 19.0801C115.039 19.2578 114.973 19.4492 114.973 19.6543H113.708C113.708 19.39 113.776 19.1279 113.913 18.8682C114.05 18.6084 114.246 18.3737 114.501 18.1641C114.761 17.9499 115.071 17.7812 115.431 17.6582C115.795 17.5306 116.201 17.4668 116.647 17.4668C117.185 17.4668 117.659 17.5579 118.069 17.7402C118.484 17.9225 118.808 18.1982 119.04 18.5674C119.277 18.932 119.396 19.39 119.396 19.9414V23.3867C119.396 23.6328 119.416 23.8949 119.457 24.1729C119.503 24.4508 119.569 24.6901 119.655 24.8906V25H118.336C118.272 24.8542 118.222 24.6605 118.186 24.4189C118.149 24.1729 118.131 23.945 118.131 23.7354ZM118.35 20.5156L118.363 21.4043H117.085C116.725 21.4043 116.404 21.4339 116.121 21.4932C115.839 21.5479 115.602 21.6322 115.41 21.7461C115.219 21.86 115.073 22.0036 114.973 22.1768C114.872 22.3454 114.822 22.5436 114.822 22.7715C114.822 23.0039 114.875 23.2158 114.979 23.4072C115.084 23.5986 115.242 23.7513 115.451 23.8652C115.665 23.9746 115.927 24.0293 116.237 24.0293C116.625 24.0293 116.966 23.9473 117.263 23.7832C117.559 23.6191 117.794 23.4186 117.967 23.1816C118.145 22.9447 118.24 22.7145 118.254 22.4912L118.794 23.0996C118.762 23.291 118.675 23.5029 118.534 23.7354C118.393 23.9678 118.204 24.1911 117.967 24.4053C117.734 24.6149 117.456 24.7904 117.133 24.9316C116.814 25.0684 116.454 25.1367 116.053 25.1367C115.551 25.1367 115.112 25.0387 114.733 24.8428C114.36 24.6468 114.068 24.3848 113.858 24.0566C113.653 23.724 113.551 23.3525 113.551 22.9424C113.551 22.5459 113.628 22.1973 113.783 21.8965C113.938 21.5911 114.161 21.3382 114.453 21.1377C114.745 20.9326 115.096 20.7777 115.506 20.6729C115.916 20.568 116.374 20.5156 116.88 20.5156H118.35ZM127.667 21.9922L129.643 15.0469H130.6L130.046 17.7471L127.92 25H126.97L127.667 21.9922ZM125.623 15.0469L127.195 21.8555L127.667 25H126.724L124.311 15.0469H125.623ZM133.156 21.8486L134.694 15.0469H136.014L133.607 25H132.664L133.156 21.8486ZM130.743 15.0469L132.664 21.9922L133.361 25H132.411L130.36 17.7471L129.8 15.0469H130.743ZM138.55 14.5V25H137.285V14.5H138.55ZM138.249 21.0215L137.723 21.001C137.727 20.4951 137.802 20.028 137.948 19.5996C138.094 19.1667 138.299 18.7907 138.563 18.4717C138.828 18.1527 139.142 17.9066 139.507 17.7334C139.876 17.5557 140.284 17.4668 140.73 17.4668C141.095 17.4668 141.423 17.5169 141.715 17.6172C142.007 17.7129 142.255 17.8678 142.46 18.082C142.67 18.2962 142.829 18.5742 142.938 18.916C143.048 19.2533 143.103 19.6657 143.103 20.1533V25H141.831V20.1396C141.831 19.7523 141.774 19.4424 141.66 19.21C141.546 18.973 141.38 18.8021 141.161 18.6973C140.942 18.5879 140.674 18.5332 140.354 18.5332C140.04 18.5332 139.753 18.5993 139.493 18.7314C139.238 18.8636 139.017 19.0459 138.83 19.2783C138.648 19.5107 138.504 19.7773 138.399 20.0781C138.299 20.3743 138.249 20.6888 138.249 21.0215ZM149.357 23.7354V19.9277C149.357 19.6361 149.298 19.3831 149.18 19.1689C149.066 18.9502 148.893 18.7816 148.66 18.6631C148.428 18.5446 148.141 18.4854 147.799 18.4854C147.48 18.4854 147.2 18.54 146.958 18.6494C146.721 18.7588 146.534 18.9023 146.397 19.0801C146.265 19.2578 146.199 19.4492 146.199 19.6543H144.935C144.935 19.39 145.003 19.1279 145.14 18.8682C145.276 18.6084 145.472 18.3737 145.728 18.1641C145.987 17.9499 146.297 17.7812 146.657 17.6582C147.022 17.5306 147.427 17.4668 147.874 17.4668C148.412 17.4668 148.886 17.5579 149.296 17.7402C149.711 17.9225 150.034 18.1982 150.267 18.5674C150.504 18.932 150.622 19.39 150.622 19.9414V23.3867C150.622 23.6328 150.643 23.8949 150.684 24.1729C150.729 24.4508 150.795 24.6901 150.882 24.8906V25H149.562C149.499 24.8542 149.449 24.6605 149.412 24.4189C149.376 24.1729 149.357 23.945 149.357 23.7354ZM149.576 20.5156L149.59 21.4043H148.312C147.951 21.4043 147.63 21.4339 147.348 21.4932C147.065 21.5479 146.828 21.6322 146.637 21.7461C146.445 21.86 146.299 22.0036 146.199 22.1768C146.099 22.3454 146.049 22.5436 146.049 22.7715C146.049 23.0039 146.101 23.2158 146.206 23.4072C146.311 23.5986 146.468 23.7513 146.678 23.8652C146.892 23.9746 147.154 24.0293 147.464 24.0293C147.851 24.0293 148.193 23.9473 148.489 23.7832C148.785 23.6191 149.02 23.4186 149.193 23.1816C149.371 22.9447 149.467 22.7145 149.48 22.4912L150.021 23.0996C149.989 23.291 149.902 23.5029 149.761 23.7354C149.619 23.9678 149.43 24.1911 149.193 24.4053C148.961 24.6149 148.683 24.7904 148.359 24.9316C148.04 25.0684 147.68 25.1367 147.279 25.1367C146.778 25.1367 146.338 25.0387 145.96 24.8428C145.586 24.6468 145.295 24.3848 145.085 24.0566C144.88 23.724 144.777 23.3525 144.777 22.9424C144.777 22.5459 144.855 22.1973 145.01 21.8965C145.165 21.5911 145.388 21.3382 145.68 21.1377C145.971 20.9326 146.322 20.7777 146.732 20.6729C147.143 20.568 147.601 20.5156 148.106 20.5156H149.576ZM155.708 17.6035V18.5742H151.709V17.6035H155.708ZM153.062 15.8057H154.327V23.168C154.327 23.4186 154.366 23.6077 154.443 23.7354C154.521 23.863 154.621 23.9473 154.744 23.9883C154.867 24.0293 154.999 24.0498 155.141 24.0498C155.245 24.0498 155.355 24.0407 155.469 24.0225C155.587 23.9997 155.676 23.9814 155.735 23.9678L155.742 25C155.642 25.0319 155.51 25.0615 155.346 25.0889C155.186 25.1208 154.993 25.1367 154.765 25.1367C154.455 25.1367 154.17 25.0752 153.91 24.9521C153.65 24.8291 153.443 24.624 153.288 24.3369C153.138 24.0452 153.062 23.6533 153.062 23.1611V15.8057ZM161.498 23.0381C161.498 22.8558 161.457 22.6872 161.375 22.5322C161.298 22.3727 161.136 22.2292 160.89 22.1016C160.648 21.9694 160.284 21.8555 159.796 21.7598C159.386 21.6732 159.014 21.5706 158.682 21.4521C158.354 21.3337 158.073 21.1901 157.841 21.0215C157.613 20.8529 157.438 20.6546 157.314 20.4268C157.191 20.1989 157.13 19.9323 157.13 19.627C157.13 19.3353 157.194 19.0596 157.321 18.7998C157.453 18.54 157.638 18.3099 157.875 18.1094C158.117 17.9089 158.406 17.7516 158.743 17.6377C159.08 17.5238 159.456 17.4668 159.871 17.4668C160.464 17.4668 160.969 17.5716 161.389 17.7812C161.808 17.9909 162.129 18.2712 162.353 18.6221C162.576 18.9684 162.688 19.3535 162.688 19.7773H161.423C161.423 19.5723 161.361 19.374 161.238 19.1826C161.12 18.9867 160.944 18.8249 160.712 18.6973C160.484 18.5697 160.204 18.5059 159.871 18.5059C159.52 18.5059 159.235 18.5605 159.017 18.6699C158.802 18.7747 158.645 18.9092 158.545 19.0732C158.449 19.2373 158.401 19.4105 158.401 19.5928C158.401 19.7295 158.424 19.8525 158.47 19.9619C158.52 20.0667 158.606 20.1647 158.729 20.2559C158.853 20.3424 159.026 20.4245 159.249 20.502C159.472 20.5794 159.757 20.6569 160.104 20.7344C160.71 20.8711 161.209 21.0352 161.601 21.2266C161.993 21.418 162.284 21.6527 162.476 21.9307C162.667 22.2087 162.763 22.5459 162.763 22.9424C162.763 23.266 162.694 23.5622 162.558 23.8311C162.425 24.0999 162.232 24.3324 161.977 24.5283C161.726 24.7197 161.425 24.8701 161.074 24.9795C160.728 25.0843 160.338 25.1367 159.905 25.1367C159.254 25.1367 158.702 25.0205 158.251 24.7881C157.8 24.5557 157.458 24.2549 157.226 23.8857C156.993 23.5166 156.877 23.127 156.877 22.7168H158.148C158.167 23.0632 158.267 23.3389 158.449 23.5439C158.632 23.7445 158.855 23.888 159.119 23.9746C159.383 24.0566 159.646 24.0977 159.905 24.0977C160.252 24.0977 160.541 24.0521 160.773 23.9609C161.01 23.8698 161.19 23.7445 161.313 23.585C161.437 23.4255 161.498 23.2432 161.498 23.0381ZM168.785 23.7354V19.9277C168.785 19.6361 168.726 19.3831 168.607 19.1689C168.493 18.9502 168.32 18.7816 168.088 18.6631C167.855 18.5446 167.568 18.4854 167.227 18.4854C166.908 18.4854 166.627 18.54 166.386 18.6494C166.149 18.7588 165.962 18.9023 165.825 19.0801C165.693 19.2578 165.627 19.4492 165.627 19.6543H164.362C164.362 19.39 164.431 19.1279 164.567 18.8682C164.704 18.6084 164.9 18.3737 165.155 18.1641C165.415 17.9499 165.725 17.7812 166.085 17.6582C166.45 17.5306 166.855 17.4668 167.302 17.4668C167.84 17.4668 168.313 17.5579 168.724 17.7402C169.138 17.9225 169.462 18.1982 169.694 18.5674C169.931 18.932 170.05 19.39 170.05 19.9414V23.3867C170.05 23.6328 170.07 23.8949 170.111 24.1729C170.157 24.4508 170.223 24.6901 170.31 24.8906V25H168.99C168.926 24.8542 168.876 24.6605 168.84 24.4189C168.803 24.1729 168.785 23.945 168.785 23.7354ZM169.004 20.5156L169.018 21.4043H167.739C167.379 21.4043 167.058 21.4339 166.775 21.4932C166.493 21.5479 166.256 21.6322 166.064 21.7461C165.873 21.86 165.727 22.0036 165.627 22.1768C165.527 22.3454 165.477 22.5436 165.477 22.7715C165.477 23.0039 165.529 23.2158 165.634 23.4072C165.739 23.5986 165.896 23.7513 166.105 23.8652C166.32 23.9746 166.582 24.0293 166.892 24.0293C167.279 24.0293 167.621 23.9473 167.917 23.7832C168.213 23.6191 168.448 23.4186 168.621 23.1816C168.799 22.9447 168.895 22.7145 168.908 22.4912L169.448 23.0996C169.416 23.291 169.33 23.5029 169.188 23.7354C169.047 23.9678 168.858 24.1911 168.621 24.4053C168.389 24.6149 168.111 24.7904 167.787 24.9316C167.468 25.0684 167.108 25.1367 166.707 25.1367C166.206 25.1367 165.766 25.0387 165.388 24.8428C165.014 24.6468 164.722 24.3848 164.513 24.0566C164.308 23.724 164.205 23.3525 164.205 22.9424C164.205 22.5459 164.283 22.1973 164.438 21.8965C164.592 21.5911 164.816 21.3382 165.107 21.1377C165.399 20.9326 165.75 20.7777 166.16 20.6729C166.57 20.568 167.028 20.5156 167.534 20.5156H169.004ZM173.304 19.0254V27.8438H172.032V17.6035H173.194L173.304 19.0254ZM178.287 21.2402V21.3838C178.287 21.9215 178.223 22.4206 178.096 22.8809C177.968 23.3366 177.781 23.7331 177.535 24.0703C177.294 24.4076 176.995 24.6696 176.64 24.8564C176.284 25.0433 175.876 25.1367 175.416 25.1367C174.947 25.1367 174.532 25.0592 174.172 24.9043C173.812 24.7493 173.507 24.5238 173.256 24.2275C173.005 23.9313 172.805 23.5758 172.654 23.1611C172.508 22.7464 172.408 22.2793 172.354 21.7598V20.9941C172.408 20.4473 172.511 19.9574 172.661 19.5244C172.812 19.0915 173.01 18.7223 173.256 18.417C173.507 18.1071 173.81 17.8724 174.165 17.7129C174.521 17.5488 174.931 17.4668 175.396 17.4668C175.86 17.4668 176.273 17.5579 176.633 17.7402C176.993 17.918 177.296 18.1732 177.542 18.5059C177.788 18.8385 177.973 19.2373 178.096 19.7021C178.223 20.1624 178.287 20.6751 178.287 21.2402ZM177.016 21.3838V21.2402C177.016 20.8711 176.977 20.5247 176.899 20.2012C176.822 19.873 176.701 19.5859 176.537 19.3398C176.378 19.0892 176.173 18.8932 175.922 18.752C175.671 18.6061 175.373 18.5332 175.026 18.5332C174.707 18.5332 174.429 18.5879 174.192 18.6973C173.96 18.8066 173.762 18.9548 173.598 19.1416C173.434 19.3239 173.299 19.5335 173.194 19.7705C173.094 20.0029 173.019 20.2445 172.969 20.4951V22.2656C173.06 22.5846 173.188 22.8854 173.352 23.168C173.516 23.446 173.734 23.6715 174.008 23.8447C174.281 24.0133 174.625 24.0977 175.04 24.0977C175.382 24.0977 175.676 24.027 175.922 23.8857C176.173 23.7399 176.378 23.5417 176.537 23.291C176.701 23.0404 176.822 22.7533 176.899 22.4297C176.977 22.1016 177.016 21.7529 177.016 21.3838ZM181.165 19.0254V27.8438H179.894V17.6035H181.056L181.165 19.0254ZM186.148 21.2402V21.3838C186.148 21.9215 186.085 22.4206 185.957 22.8809C185.829 23.3366 185.643 23.7331 185.396 24.0703C185.155 24.4076 184.856 24.6696 184.501 24.8564C184.146 25.0433 183.738 25.1367 183.277 25.1367C182.808 25.1367 182.393 25.0592 182.033 24.9043C181.673 24.7493 181.368 24.5238 181.117 24.2275C180.867 23.9313 180.666 23.5758 180.516 23.1611C180.37 22.7464 180.27 22.2793 180.215 21.7598V20.9941C180.27 20.4473 180.372 19.9574 180.522 19.5244C180.673 19.0915 180.871 18.7223 181.117 18.417C181.368 18.1071 181.671 17.8724 182.026 17.7129C182.382 17.5488 182.792 17.4668 183.257 17.4668C183.722 17.4668 184.134 17.5579 184.494 17.7402C184.854 17.918 185.157 18.1732 185.403 18.5059C185.649 18.8385 185.834 19.2373 185.957 19.7021C186.085 20.1624 186.148 20.6751 186.148 21.2402ZM184.877 21.3838V21.2402C184.877 20.8711 184.838 20.5247 184.761 20.2012C184.683 19.873 184.562 19.5859 184.398 19.3398C184.239 19.0892 184.034 18.8932 183.783 18.752C183.533 18.6061 183.234 18.5332 182.888 18.5332C182.569 18.5332 182.291 18.5879 182.054 18.6973C181.821 18.8066 181.623 18.9548 181.459 19.1416C181.295 19.3239 181.16 19.5335 181.056 19.7705C180.955 20.0029 180.88 20.2445 180.83 20.4951V22.2656C180.921 22.5846 181.049 22.8854 181.213 23.168C181.377 23.446 181.596 23.6715 181.869 23.8447C182.143 24.0133 182.487 24.0977 182.901 24.0977C183.243 24.0977 183.537 24.027 183.783 23.8857C184.034 23.7399 184.239 23.5417 184.398 23.291C184.562 23.0404 184.683 22.7533 184.761 22.4297C184.838 22.1016 184.877 21.7529 184.877 21.3838Z" fill="black" fill-opacity="0.85"/>
</g>
<defs>
<filter id="filter0_d_121_1490" x="0" y="0" width="203" height="42" filterUnits="userSpaceOnUse" color-interpolation-filters="sRGB">
<feFlood flood-opacity="0" result="BackgroundImageFix"/>
<feColorMatrix in="SourceAlpha" type="matrix" values="0 0 0 0 0 0 0 0 0 0 0 0 0 0 0 0 0 0 127 0" result="hardAlpha"/>
<feOffset dy="2"/>
<feColorMatrix type="matrix" values="0 0 0 0 0 0 0 0 0 0 0 0 0 0 0 0 0 0 0.016 0"/>
<feBlend mode="normal" in2="BackgroundImageFix" result="effect1_dropShadow_121_1490"/>
<feBlend mode="normal" in="SourceGraphic" in2="effect1_dropShadow_121_1490" result="shape"/>
</filter>
<clipPath id="clip0_121_1490">
<rect width="24" height="24" fill="white" transform="translate(16 8)"/>
</clipPath>
</defs>
</svg>
