<svg width="57" height="42" viewBox="0 0 57 42" fill="none" xmlns="http://www.w3.org/2000/svg">
<g filter="url(#filter0_d_121_1490)">
<rect x="0.5" width="56" height="40" rx="8" fill="white"/>
<rect x="1" y="0.5" width="55" height="39" rx="7.5" stroke="#D3AF37"/>
<g clip-path="url(#clip0_121_1490)">
<path d="M33.8976 22.348C33.6056 22.198 32.1511 21.4855 31.8806 21.389C31.6101 21.2872 31.4119 21.239 31.2163 21.539C31.0181 21.8363 30.4556 22.498 30.2788 22.6988C30.1074 22.8971 29.9333 22.9212 29.6413 22.7738C27.9056 21.906 26.7672 21.2256 25.6235 19.2622C25.3208 18.7399 25.9261 18.7774 26.4913 17.6497C26.5877 17.4515 26.5395 17.2828 26.4645 17.1328C26.3895 16.9828 25.8002 15.531 25.5538 14.939C25.3154 14.3631 25.069 14.4435 24.8895 14.4328C24.7181 14.4221 24.5226 14.4221 24.3244 14.4221C24.1261 14.4221 23.8074 14.4971 23.5369 14.789C23.2663 15.0863 22.5029 15.8015 22.5029 17.2533C22.5029 18.7051 23.561 20.1113 23.7056 20.3096C23.8556 20.5078 25.7869 23.4863 28.752 24.7694C30.627 25.5783 31.361 25.648 32.2985 25.5087C32.869 25.423 34.0449 24.7962 34.2886 24.1024C34.5324 23.4113 34.5324 22.8194 34.4601 22.6962C34.3877 22.5649 34.1895 22.4899 33.8976 22.348Z" fill="#1F4037"/>
<path d="M39.568 15.35C38.9627 13.9116 38.0948 12.6205 36.9885 11.5116C35.89 10.4091 34.586 9.53274 33.1502 8.93214C31.6769 8.31339 30.1127 8 28.5002 8H28.4466C26.8234 8.00804 25.251 8.32946 23.7725 8.96161C22.349 9.56836 21.0571 10.4463 19.9689 11.5464C18.8734 12.6527 18.0135 13.9384 17.4189 15.3714C16.8028 16.8554 16.4921 18.433 16.5002 20.0562C16.5092 21.9164 16.9493 23.7492 17.7859 25.4107V29.4821C17.7859 29.8089 17.9157 30.1223 18.1468 30.3534C18.3778 30.5845 18.6912 30.7143 19.018 30.7143H23.0921C24.7536 31.5508 26.5864 31.9909 28.4466 32H28.5028C30.1073 32 31.6635 31.6893 33.1287 31.0813C34.5573 30.4878 35.8565 29.6217 36.9537 28.5312C38.06 27.4357 38.9305 26.1554 39.5385 24.7277C40.1707 23.2491 40.4921 21.6768 40.5002 20.0536C40.5082 18.4223 40.1921 16.8393 39.568 15.35ZM35.5207 27.0821C33.643 28.9411 31.1519 29.9643 28.5002 29.9643H28.4546C26.8394 29.9563 25.235 29.5545 23.818 28.7991L23.593 28.6786H19.8216V24.9071L19.701 24.6821C18.9457 23.2652 18.5439 21.6607 18.5359 20.0455C18.5252 17.375 19.5457 14.8679 21.418 12.9795C23.2877 11.0911 25.7868 10.0464 28.4573 10.0357H28.5028C29.8421 10.0357 31.1412 10.2955 32.3653 10.8098C33.56 11.3107 34.6314 12.0312 35.5528 12.9527C36.4716 13.8714 37.1948 14.9455 37.6957 16.1402C38.2153 17.3777 38.4752 18.6902 38.4698 20.0455C38.4537 22.7134 37.4064 25.2125 35.5207 27.0821Z" fill="#1F4037"/>
</g>
</g>
<defs>
<filter id="filter0_d_121_1490" x="0.5" y="0" width="56" height="42" filterUnits="userSpaceOnUse" color-interpolation-filters="sRGB">
<feFlood flood-opacity="0" result="BackgroundImageFix"/>
<feColorMatrix in="SourceAlpha" type="matrix" values="0 0 0 0 0 0 0 0 0 0 0 0 0 0 0 0 0 0 127 0" result="hardAlpha"/>
<feOffset dy="2"/>
<feColorMatrix type="matrix" values="0 0 0 0 0 0 0 0 0 0 0 0 0 0 0 0 0 0 0.016 0"/>
<feBlend mode="normal" in2="BackgroundImageFix" result="effect1_dropShadow_121_1490"/>
<feBlend mode="normal" in="SourceGraphic" in2="effect1_dropShadow_121_1490" result="shape"/>
</filter>
<clipPath id="clip0_121_1490">
<rect width="24" height="24" fill="white" transform="translate(16.5 8)"/>
</clipPath>
</defs>
</svg>
